<mxfile host="65bd71144e">
    <diagram id="3rqUQgAviUnTxgStA7p-" name="Page-1">
        <mxGraphModel dx="826" dy="1739" grid="1" gridSize="10" guides="1" tooltips="1" connect="1" arrows="1" fold="1" page="1" pageScale="1" pageWidth="850" pageHeight="1100" background="#F1FAEE" math="0" shadow="0">
            <root>
                <mxCell id="0"/>
                <mxCell id="1" parent="0"/>
                <mxCell id="h0GhQMKNpA5xtizegrnL-1" value="Manage data&amp;nbsp;" style="shape=umlFrame;whiteSpace=wrap;html=1;width=160;height=30;fillColor=#A8DADC;strokeColor=#457B9D;fontColor=#1D3557;fontSize=14;" vertex="1" parent="1">
                    <mxGeometry x="170" y="-880" width="510" height="660" as="geometry"/>
                </mxCell>
                <mxCell id="ume9rT-e13OWC4TH4kUw-7" style="edgeStyle=none;rounded=1;sketch=0;orthogonalLoop=1;jettySize=auto;html=1;fontColor=#1D3557;startArrow=none;startFill=0;endArrow=block;endFill=0;startSize=10;endSize=10;strokeColor=#457B9D;fillColor=#A8DADC;fontSize=14;" edge="1" parent="1" source="RD-NvHHjDOXEdXnR1vTJ-3" target="RD-NvHHjDOXEdXnR1vTJ-6">
                    <mxGeometry relative="1" as="geometry"/>
                </mxCell>
                <mxCell id="RD-NvHHjDOXEdXnR1vTJ-3" value="Add item" style="ellipse;whiteSpace=wrap;html=1;fontSize=14;fillColor=#A8DADC;strokeColor=#457B9D;fontColor=#1D3557;" vertex="1" parent="1">
                    <mxGeometry x="530" y="-860" width="120" height="50" as="geometry"/>
                </mxCell>
                <mxCell id="RD-NvHHjDOXEdXnR1vTJ-4" style="edgeStyle=entityRelationEdgeStyle;rounded=1;sketch=0;orthogonalLoop=1;jettySize=auto;html=1;fontSize=14;endSize=10;entryX=0;entryY=0.5;entryDx=0;entryDy=0;endArrow=open;endFill=0;strokeColor=#457B9D;fontColor=#1D3557;labelBackgroundColor=#F1FAEE;" edge="1" parent="1" source="RD-NvHHjDOXEdXnR1vTJ-5" target="RD-NvHHjDOXEdXnR1vTJ-6">
                    <mxGeometry relative="1" as="geometry">
                        <mxPoint x="325" y="-650" as="targetPoint"/>
                    </mxGeometry>
                </mxCell>
                <mxCell id="h0GhQMKNpA5xtizegrnL-10" style="edgeStyle=none;rounded=1;sketch=0;orthogonalLoop=1;jettySize=auto;html=1;fontColor=#1D3557;endArrow=open;endFill=0;strokeColor=#457B9D;fillColor=#A8DADC;endSize=10;fontSize=14;" edge="1" parent="1" source="RD-NvHHjDOXEdXnR1vTJ-5" target="h0GhQMKNpA5xtizegrnL-7">
                    <mxGeometry relative="1" as="geometry"/>
                </mxCell>
                <mxCell id="RD-NvHHjDOXEdXnR1vTJ-5" value="Restaurant manager" style="shape=umlActor;verticalLabelPosition=bottom;verticalAlign=top;html=1;rounded=0;sketch=0;fontSize=14;fillColor=#A8DADC;strokeColor=#457B9D;fontColor=#1D3557;" vertex="1" parent="1">
                    <mxGeometry x="70" y="-710" width="30" height="60" as="geometry"/>
                </mxCell>
                <mxCell id="ume9rT-e13OWC4TH4kUw-6" value="" style="edgeStyle=none;rounded=1;sketch=0;orthogonalLoop=1;jettySize=auto;html=1;fontColor=#1D3557;endArrow=none;endFill=0;strokeColor=#457B9D;fillColor=#A8DADC;startArrow=block;startFill=0;endSize=6;startSize=10;labelBackgroundColor=#F1FAEE;fontSize=14;" edge="1" parent="1" target="ume9rT-e13OWC4TH4kUw-5">
                    <mxGeometry relative="1" as="geometry">
                        <mxPoint x="380" y="-651" as="sourcePoint"/>
                    </mxGeometry>
                </mxCell>
                <mxCell id="RD-NvHHjDOXEdXnR1vTJ-6" value="Edit menu" style="ellipse;whiteSpace=wrap;html=1;fontSize=14;fillColor=#A8DADC;strokeColor=#457B9D;fontColor=#1D3557;" vertex="1" parent="1">
                    <mxGeometry x="280" y="-720" width="120" height="80" as="geometry"/>
                </mxCell>
                <mxCell id="RD-NvHHjDOXEdXnR1vTJ-13" value="Change item" style="ellipse;whiteSpace=wrap;html=1;fontSize=14;fillColor=#A8DADC;strokeColor=#457B9D;fontColor=#1D3557;" vertex="1" parent="1">
                    <mxGeometry x="530" y="-770" width="120" height="50" as="geometry"/>
                </mxCell>
                <mxCell id="RD-NvHHjDOXEdXnR1vTJ-15" value="" style="rounded=1;sketch=0;orthogonalLoop=1;jettySize=auto;html=1;fontSize=14;endArrow=block;endFill=0;endSize=10;strokeColor=#457B9D;fontColor=#1D3557;labelBackgroundColor=#F1FAEE;" edge="1" parent="1" source="RD-NvHHjDOXEdXnR1vTJ-13" target="RD-NvHHjDOXEdXnR1vTJ-6">
                    <mxGeometry x="-0.0325" y="-4" relative="1" as="geometry">
                        <mxPoint as="offset"/>
                        <mxPoint x="350" y="-710" as="targetPoint"/>
                        <mxPoint x="490" y="-800" as="sourcePoint"/>
                    </mxGeometry>
                </mxCell>
                <mxCell id="RD-NvHHjDOXEdXnR1vTJ-17" value="Remove item" style="ellipse;whiteSpace=wrap;html=1;fontSize=14;fillColor=#A8DADC;strokeColor=#457B9D;fontColor=#1D3557;" vertex="1" parent="1">
                    <mxGeometry x="530" y="-690" width="120" height="50" as="geometry"/>
                </mxCell>
                <mxCell id="RD-NvHHjDOXEdXnR1vTJ-18" value="" style="rounded=1;sketch=0;orthogonalLoop=1;jettySize=auto;html=1;fontSize=14;endArrow=block;endFill=0;endSize=10;strokeColor=#457B9D;fontColor=#1D3557;startArrow=none;startFill=0;labelBackgroundColor=#F1FAEE;" edge="1" parent="1" source="RD-NvHHjDOXEdXnR1vTJ-17" target="RD-NvHHjDOXEdXnR1vTJ-6">
                    <mxGeometry x="-0.0325" y="-4" relative="1" as="geometry">
                        <mxPoint as="offset"/>
                        <mxPoint x="227.77539614192003" y="-529.9983450617599" as="targetPoint"/>
                        <mxPoint x="342.22" y="-666.03" as="sourcePoint"/>
                    </mxGeometry>
                </mxCell>
                <mxCell id="RD-NvHHjDOXEdXnR1vTJ-23" style="edgeStyle=orthogonalEdgeStyle;rounded=0;orthogonalLoop=1;jettySize=auto;html=1;exitX=0.5;exitY=1;exitDx=0;exitDy=0;strokeColor=#457B9D;fontColor=#1D3557;labelBackgroundColor=#F1FAEE;fontSize=14;" edge="1" parent="1" source="RD-NvHHjDOXEdXnR1vTJ-17" target="RD-NvHHjDOXEdXnR1vTJ-17">
                    <mxGeometry relative="1" as="geometry"/>
                </mxCell>
                <mxCell id="ume9rT-e13OWC4TH4kUw-5" value="Update promotion" style="ellipse;whiteSpace=wrap;html=1;fontSize=14;fontColor=#1D3557;strokeColor=#457B9D;fillColor=#A8DADC;" vertex="1" parent="1">
                    <mxGeometry x="530" y="-600" width="120" height="60" as="geometry"/>
                </mxCell>
                <mxCell id="h0GhQMKNpA5xtizegrnL-8" style="rounded=1;sketch=0;orthogonalLoop=1;jettySize=auto;html=1;fontColor=#1D3557;strokeColor=#457B9D;fillColor=#A8DADC;entryX=0.5;entryY=1;entryDx=0;entryDy=0;endArrow=block;endFill=0;fontSize=14;endSize=10;startSize=10;" edge="1" parent="1" source="h0GhQMKNpA5xtizegrnL-3" target="h0GhQMKNpA5xtizegrnL-7">
                    <mxGeometry relative="1" as="geometry">
                        <mxPoint x="290" y="-450" as="targetPoint"/>
                    </mxGeometry>
                </mxCell>
                <mxCell id="h0GhQMKNpA5xtizegrnL-3" value="Backup data" style="ellipse;whiteSpace=wrap;html=1;fontSize=14;fillColor=#A8DADC;strokeColor=#457B9D;fontColor=#1D3557;" vertex="1" parent="1">
                    <mxGeometry x="230" y="-390" width="120" height="80" as="geometry"/>
                </mxCell>
                <mxCell id="h0GhQMKNpA5xtizegrnL-9" style="rounded=1;sketch=0;orthogonalLoop=1;jettySize=auto;html=1;fontColor=#1D3557;strokeColor=#457B9D;fillColor=#A8DADC;endArrow=block;endFill=0;fontSize=14;endSize=10;" edge="1" parent="1" source="h0GhQMKNpA5xtizegrnL-5" target="h0GhQMKNpA5xtizegrnL-7">
                    <mxGeometry relative="1" as="geometry"/>
                </mxCell>
                <mxCell id="h0GhQMKNpA5xtizegrnL-5" value="Restore data" style="ellipse;whiteSpace=wrap;html=1;fontSize=14;fillColor=#A8DADC;strokeColor=#457B9D;fontColor=#1D3557;" vertex="1" parent="1">
                    <mxGeometry x="430" y="-390" width="120" height="80" as="geometry"/>
                </mxCell>
                <mxCell id="h0GhQMKNpA5xtizegrnL-7" value="Maintain data" style="ellipse;whiteSpace=wrap;html=1;fontSize=14;fillColor=#A8DADC;strokeColor=#457B9D;fontColor=#1D3557;" vertex="1" parent="1">
                    <mxGeometry x="305" y="-540" width="120" height="80" as="geometry"/>
                </mxCell>
            </root>
        </mxGraphModel>
    </diagram>
</mxfile>